<svg xmlns="http://www.w3.org/2000/svg" xmlns:xlink="http://www.w3.org/1999/xlink" width="500" zoomAndPan="magnify" viewBox="0 0 375 374.999991" height="500" preserveAspectRatio="xMidYMid meet" version="1.0"><defs><clipPath id="afadb8c03c"><path d="M 70 1.6875 L 305.347656 1.6875 L 305.347656 373.6875 L 70 373.6875 Z M 70 1.6875 " clip-rule="nonzero"/></clipPath><clipPath id="b6ea54a334"><path d="M 163.3125 83.699219 L 294.5625 83.699219 L 294.5625 291.449219 L 163.3125 291.449219 Z M 163.3125 83.699219 " clip-rule="nonzero"/></clipPath></defs><g clip-path="url(#afadb8c03c)"><path fill="#22c55e" d="M 707.234375 175.539062 C 710.292969 178.597656 712.199219 182.820312 712.199219 187.5 C 712.199219 192.179688 710.308594 196.402344 707.234375 199.460938 L 538.3125 368.378906 C 535.257812 371.4375 531.015625 373.328125 526.355469 373.328125 C 517.011719 373.328125 509.445312 365.761719 509.445312 356.421875 C 509.445312 351.757812 511.335938 347.519531 514.394531 344.460938 L 671.390625 187.5 L 514.394531 30.539062 C 511.335938 27.480469 509.445312 23.242188 509.445312 18.578125 C 509.445312 9.238281 517.011719 1.671875 526.355469 1.671875 C 531.015625 1.671875 535.257812 3.5625 538.3125 6.621094 Z M 256.082031 373.3125 C 256.097656 373.3125 256.097656 373.3125 256.113281 373.3125 C 265.4375 373.3125 273.007812 365.746094 273.007812 356.421875 C 273.007812 351.742188 271.113281 347.519531 268.039062 344.460938 L 111.046875 187.5 L 268.039062 30.539062 C 271.097656 27.480469 272.988281 23.242188 272.988281 18.578125 C 272.988281 9.238281 265.421875 1.671875 256.082031 1.671875 C 251.417969 1.671875 247.179688 3.5625 244.121094 6.621094 L 75.199219 175.539062 C 72.125 178.597656 70.234375 182.820312 70.234375 187.5 C 70.234375 192.179688 72.125 196.402344 75.199219 199.460938 L 244.121094 368.378906 C 247.179688 371.421875 251.402344 373.3125 256.046875 373.3125 C 256.0625 373.3125 256.0625 373.3125 256.082031 373.3125 Z M 256.082031 373.3125 " fill-opacity="1" fill-rule="nonzero"/></g><g clip-path="url(#b6ea54a334)"><path fill="#22c55e" d="M 519.371094 180.816406 C 521.082031 182.523438 522.148438 184.882812 522.148438 187.496094 C 522.148438 190.113281 521.089844 192.472656 519.371094 194.179688 L 425.011719 288.542969 C 423.300781 290.25 420.933594 291.304688 418.328125 291.304688 C 413.109375 291.304688 408.882812 287.078125 408.882812 281.859375 C 408.882812 279.257812 409.941406 276.886719 411.648438 275.179688 L 499.347656 187.496094 L 411.648438 99.816406 C 409.941406 98.109375 408.882812 95.738281 408.882812 93.136719 C 408.882812 87.917969 413.109375 83.691406 418.328125 83.691406 C 420.933594 83.691406 423.300781 84.746094 425.011719 86.453125 Z M 267.347656 291.296875 C 267.359375 291.296875 267.359375 291.296875 267.367188 291.296875 C 272.578125 291.296875 276.804688 287.070312 276.804688 281.859375 C 276.804688 279.246094 275.746094 276.886719 274.03125 275.179688 L 186.328125 187.496094 L 274.03125 99.816406 C 275.738281 98.109375 276.796875 95.738281 276.796875 93.136719 C 276.796875 87.917969 272.566406 83.691406 267.347656 83.691406 C 264.746094 83.691406 262.375 84.746094 260.667969 86.453125 L 166.304688 180.816406 C 164.589844 182.523438 163.53125 184.882812 163.53125 187.496094 C 163.53125 190.113281 164.589844 192.472656 166.304688 194.179688 L 260.667969 288.542969 C 262.375 290.238281 264.734375 291.296875 267.332031 291.296875 C 267.339844 291.296875 267.339844 291.296875 267.347656 291.296875 Z M 267.347656 291.296875 " fill-opacity="1" fill-rule="nonzero"/></g></svg>