<svg xmlns="http://www.w3.org/2000/svg" xmlns:xlink="http://www.w3.org/1999/xlink" width="300" zoomAndPan="magnify" viewBox="0 0 224.87999 54" height="62" preserveAspectRatio="xMidYMid meet" version="1.0"><defs><g/><clipPath id="72ec7d300a"><rect x="0" width="165" y="0" height="40"/></clipPath><clipPath id="4da960ed68"><path d="M 16.636719 2.042969 L 43.621094 2.042969 L 43.621094 44.769531 L 16.636719 44.769531 Z M 16.636719 2.042969 " clip-rule="nonzero"/></clipPath><clipPath id="3e3dde7095"><path d="M 27.304688 11.402344 L 42.296875 11.402344 L 42.296875 35.390625 L 27.304688 35.390625 Z M 27.304688 11.402344 " clip-rule="nonzero"/></clipPath></defs><g transform="matrix(1, 0, 0, 1, 43, 3)"><g clip-path="url(#72ec7d300a)"><g fill="#ffffff" fill-opacity="1"><g transform="translate(0.49326, 30.907795)"><g><path d="M 20.46875 0 L 15.03125 0 L 6.234375 -15.296875 L 6.109375 -15.296875 C 6.285156 -12.585938 6.375 -10.660156 6.375 -9.515625 L 6.375 0 L 2.546875 0 L 2.546875 -20.21875 L 7.953125 -20.21875 L 16.734375 -5.078125 L 16.828125 -5.078125 C 16.679688 -7.703125 16.609375 -9.554688 16.609375 -10.640625 L 16.609375 -20.21875 L 20.46875 -20.21875 Z M 20.46875 0 "/></g></g></g><g fill="#ffffff" fill-opacity="1"><g transform="translate(23.510212, 30.907795)"><g><path d="M 8.609375 -12.75 C 7.710938 -12.75 7.007812 -12.460938 6.5 -11.890625 C 6 -11.328125 5.710938 -10.523438 5.640625 -9.484375 L 11.5625 -9.484375 C 11.539062 -10.523438 11.265625 -11.328125 10.734375 -11.890625 C 10.210938 -12.460938 9.503906 -12.75 8.609375 -12.75 Z M 9.203125 0.28125 C 6.710938 0.28125 4.765625 -0.40625 3.359375 -1.78125 C 1.960938 -3.15625 1.265625 -5.101562 1.265625 -7.625 C 1.265625 -10.207031 1.910156 -12.207031 3.203125 -13.625 C 4.503906 -15.039062 6.296875 -15.75 8.578125 -15.75 C 10.765625 -15.75 12.46875 -15.125 13.6875 -13.875 C 14.90625 -12.632812 15.515625 -10.914062 15.515625 -8.71875 L 15.515625 -6.671875 L 5.546875 -6.671875 C 5.585938 -5.472656 5.941406 -4.535156 6.609375 -3.859375 C 7.273438 -3.191406 8.207031 -2.859375 9.40625 -2.859375 C 10.332031 -2.859375 11.207031 -2.953125 12.03125 -3.140625 C 12.863281 -3.335938 13.734375 -3.648438 14.640625 -4.078125 L 14.640625 -0.8125 C 13.898438 -0.445312 13.109375 -0.175781 12.265625 0 C 11.429688 0.1875 10.410156 0.28125 9.203125 0.28125 Z M 9.203125 0.28125 "/></g></g></g><g fill="#ffffff" fill-opacity="1"><g transform="translate(40.237246, 30.907795)"><g><path d="M 5.375 -7.890625 L 0.40625 -15.453125 L 5.1875 -15.453125 L 8.1875 -10.53125 L 11.21875 -15.453125 L 16 -15.453125 L 10.96875 -7.890625 L 16.234375 0 L 11.4375 0 L 8.1875 -5.296875 L 4.921875 0 L 0.140625 0 Z M 5.375 -7.890625 "/></g></g></g><g fill="#ffffff" fill-opacity="1"><g transform="translate(56.604856, 30.907795)"><g><path d="M 8.71875 -3.078125 C 9.457031 -3.078125 10.34375 -3.238281 11.375 -3.5625 L 11.375 -0.421875 C 10.320312 0.046875 9.03125 0.28125 7.5 0.28125 C 5.820312 0.28125 4.597656 -0.144531 3.828125 -1 C 3.054688 -1.851562 2.671875 -3.132812 2.671875 -4.84375 L 2.671875 -12.296875 L 0.65625 -12.296875 L 0.65625 -14.078125 L 2.96875 -15.484375 L 4.1875 -18.75 L 6.890625 -18.75 L 6.890625 -15.453125 L 11.21875 -15.453125 L 11.21875 -12.296875 L 6.890625 -12.296875 L 6.890625 -4.84375 C 6.890625 -4.238281 7.054688 -3.789062 7.390625 -3.5 C 7.722656 -3.21875 8.164062 -3.078125 8.71875 -3.078125 Z M 8.71875 -3.078125 "/></g></g></g><g fill="#ffffff" fill-opacity="1"><g transform="translate(68.89865, 30.907795)"><g><path d="M 2.546875 0 L 2.546875 -20.21875 L 6.828125 -20.21875 L 6.828125 -3.546875 L 15.03125 -3.546875 L 15.03125 0 Z M 2.546875 0 "/></g></g></g><g fill="#ffffff" fill-opacity="1"><g transform="translate(84.893012, 30.907795)"><g><path d="M 8.609375 -12.75 C 7.710938 -12.75 7.007812 -12.460938 6.5 -11.890625 C 6 -11.328125 5.710938 -10.523438 5.640625 -9.484375 L 11.5625 -9.484375 C 11.539062 -10.523438 11.265625 -11.328125 10.734375 -11.890625 C 10.210938 -12.460938 9.503906 -12.75 8.609375 -12.75 Z M 9.203125 0.28125 C 6.710938 0.28125 4.765625 -0.40625 3.359375 -1.78125 C 1.960938 -3.15625 1.265625 -5.101562 1.265625 -7.625 C 1.265625 -10.207031 1.910156 -12.207031 3.203125 -13.625 C 4.503906 -15.039062 6.296875 -15.75 8.578125 -15.75 C 10.765625 -15.75 12.46875 -15.125 13.6875 -13.875 C 14.90625 -12.632812 15.515625 -10.914062 15.515625 -8.71875 L 15.515625 -6.671875 L 5.546875 -6.671875 C 5.585938 -5.472656 5.941406 -4.535156 6.609375 -3.859375 C 7.273438 -3.191406 8.207031 -2.859375 9.40625 -2.859375 C 10.332031 -2.859375 11.207031 -2.953125 12.03125 -3.140625 C 12.863281 -3.335938 13.734375 -3.648438 14.640625 -4.078125 L 14.640625 -0.8125 C 13.898438 -0.445312 13.109375 -0.175781 12.265625 0 C 11.429688 0.1875 10.410156 0.28125 9.203125 0.28125 Z M 9.203125 0.28125 "/></g></g></g><g fill="#ffffff" fill-opacity="1"><g transform="translate(101.620046, 30.907795)"><g><path d="M 12.03125 0 L 11.21875 -2.09375 L 11.09375 -2.09375 C 10.382812 -1.207031 9.65625 -0.585938 8.90625 -0.234375 C 8.15625 0.109375 7.175781 0.28125 5.96875 0.28125 C 4.488281 0.28125 3.320312 -0.140625 2.46875 -0.984375 C 1.613281 -1.835938 1.1875 -3.050781 1.1875 -4.625 C 1.1875 -6.257812 1.757812 -7.46875 2.90625 -8.25 C 4.050781 -9.03125 5.78125 -9.457031 8.09375 -9.53125 L 10.78125 -9.625 L 10.78125 -10.296875 C 10.78125 -11.867188 9.976562 -12.65625 8.375 -12.65625 C 7.144531 -12.65625 5.691406 -12.28125 4.015625 -11.53125 L 2.625 -14.375 C 4.40625 -15.3125 6.378906 -15.78125 8.546875 -15.78125 C 10.617188 -15.78125 12.207031 -15.328125 13.3125 -14.421875 C 14.414062 -13.515625 14.96875 -12.140625 14.96875 -10.296875 L 14.96875 0 Z M 10.78125 -7.15625 L 9.15625 -7.109375 C 7.925781 -7.066406 7.007812 -6.84375 6.40625 -6.4375 C 5.8125 -6.03125 5.515625 -5.414062 5.515625 -4.59375 C 5.515625 -3.40625 6.195312 -2.8125 7.5625 -2.8125 C 8.539062 -2.8125 9.320312 -3.09375 9.90625 -3.65625 C 10.488281 -4.21875 10.78125 -4.960938 10.78125 -5.890625 Z M 10.78125 -7.15625 "/></g></g></g><g fill="#ffffff" fill-opacity="1"><g transform="translate(118.720328, 30.907795)"><g><path d="M 7.109375 0.28125 C 5.285156 0.28125 3.851562 -0.421875 2.8125 -1.828125 C 1.78125 -3.242188 1.265625 -5.203125 1.265625 -7.703125 C 1.265625 -10.234375 1.789062 -12.207031 2.84375 -13.625 C 3.90625 -15.039062 5.363281 -15.75 7.21875 -15.75 C 9.164062 -15.75 10.648438 -14.992188 11.671875 -13.484375 L 11.8125 -13.484375 C 11.59375 -14.628906 11.484375 -15.65625 11.484375 -16.5625 L 11.484375 -21.515625 L 15.71875 -21.515625 L 15.71875 0 L 12.484375 0 L 11.671875 -2 L 11.484375 -2 C 10.523438 -0.476562 9.066406 0.28125 7.109375 0.28125 Z M 8.578125 -3.078125 C 9.660156 -3.078125 10.453125 -3.390625 10.953125 -4.015625 C 11.453125 -4.648438 11.726562 -5.71875 11.78125 -7.21875 L 11.78125 -7.671875 C 11.78125 -9.328125 11.523438 -10.515625 11.015625 -11.234375 C 10.503906 -11.953125 9.671875 -12.3125 8.515625 -12.3125 C 7.578125 -12.3125 6.847656 -11.910156 6.328125 -11.109375 C 5.804688 -10.316406 5.546875 -9.160156 5.546875 -7.640625 C 5.546875 -6.117188 5.804688 -4.976562 6.328125 -4.21875 C 6.859375 -3.457031 7.609375 -3.078125 8.578125 -3.078125 Z M 8.578125 -3.078125 "/></g></g></g><g fill="#ffffff" fill-opacity="1"><g transform="translate(136.636225, 30.907795)"><g><path d="M 2.546875 0 L 2.546875 -20.21875 L 6.828125 -20.21875 L 6.828125 0 Z M 2.546875 0 "/></g></g></g><g fill="#ffffff" fill-opacity="1"><g transform="translate(146.008894, 30.907795)"><g><path d="M 16.484375 0 L 12.265625 0 L 12.265625 -9.03125 C 12.265625 -10.144531 12.066406 -10.976562 11.671875 -11.53125 C 11.273438 -12.09375 10.644531 -12.375 9.78125 -12.375 C 8.59375 -12.375 7.734375 -11.976562 7.203125 -11.1875 C 6.679688 -10.40625 6.421875 -9.097656 6.421875 -7.265625 L 6.421875 0 L 2.21875 0 L 2.21875 -15.453125 L 5.4375 -15.453125 L 6 -13.484375 L 6.234375 -13.484375 C 6.703125 -14.222656 7.347656 -14.785156 8.171875 -15.171875 C 9.003906 -15.554688 9.941406 -15.75 10.984375 -15.75 C 12.785156 -15.75 14.148438 -15.257812 15.078125 -14.28125 C 16.015625 -13.3125 16.484375 -11.910156 16.484375 -10.078125 Z M 16.484375 0 "/></g></g></g></g></g><g clip-path="url(#4da960ed68)"><path fill="#ffffff" d="M 89.378906 21.882812 C 89.726562 22.234375 89.945312 22.714844 89.945312 23.25 C 89.945312 23.78125 89.730469 24.265625 89.378906 24.613281 L 70.101562 43.890625 C 69.75 44.242188 69.269531 44.457031 68.734375 44.457031 C 67.667969 44.457031 66.804688 43.59375 66.804688 42.527344 C 66.804688 41.996094 67.023438 41.511719 67.371094 41.160156 L 85.289062 23.25 L 67.371094 5.335938 C 67.023438 4.988281 66.804688 4.503906 66.804688 3.972656 C 66.804688 2.90625 67.667969 2.042969 68.734375 2.042969 C 69.269531 2.042969 69.75 2.257812 70.101562 2.605469 Z M 37.890625 44.453125 C 37.894531 44.453125 37.894531 44.453125 37.894531 44.453125 C 38.960938 44.453125 39.824219 43.589844 39.824219 42.527344 C 39.824219 41.992188 39.605469 41.511719 39.257812 41.160156 L 21.339844 23.25 L 39.257812 5.335938 C 39.605469 4.988281 39.820312 4.503906 39.820312 3.972656 C 39.820312 2.90625 38.957031 2.042969 37.890625 2.042969 C 37.359375 2.042969 36.875 2.257812 36.527344 2.605469 L 17.25 21.882812 C 16.898438 22.234375 16.683594 22.714844 16.683594 23.25 C 16.683594 23.78125 16.898438 24.265625 17.25 24.613281 L 36.527344 43.890625 C 36.875 44.238281 37.355469 44.453125 37.886719 44.453125 C 37.890625 44.453125 37.890625 44.453125 37.890625 44.453125 Z M 37.890625 44.453125 " fill-opacity="1" fill-rule="nonzero"/></g><g clip-path="url(#3e3dde7095)"><path fill="#ffffff" d="M 67.945312 22.488281 C 68.140625 22.683594 68.261719 22.953125 68.261719 23.25 C 68.261719 23.550781 68.140625 23.820312 67.945312 24.015625 L 57.171875 34.785156 C 56.980469 34.980469 56.707031 35.101562 56.410156 35.101562 C 55.816406 35.101562 55.332031 34.617188 55.332031 34.023438 C 55.332031 33.722656 55.453125 33.453125 55.648438 33.257812 L 65.660156 23.25 L 55.648438 13.242188 C 55.453125 13.046875 55.332031 12.777344 55.332031 12.480469 C 55.332031 11.886719 55.816406 11.402344 56.410156 11.402344 C 56.707031 11.402344 56.980469 11.523438 57.171875 11.71875 Z M 39.179688 35.097656 C 39.777344 35.097656 40.257812 34.617188 40.257812 34.023438 C 40.257812 33.722656 40.136719 33.453125 39.941406 33.257812 L 29.929688 23.25 L 39.941406 13.242188 C 40.136719 13.046875 40.257812 12.777344 40.257812 12.480469 C 40.257812 11.886719 39.773438 11.402344 39.179688 11.402344 C 38.882812 11.402344 38.609375 11.523438 38.417969 11.71875 L 27.644531 22.488281 C 27.449219 22.683594 27.328125 22.953125 27.328125 23.25 C 27.328125 23.550781 27.449219 23.820312 27.644531 24.015625 L 38.417969 34.785156 C 38.609375 34.976562 38.878906 35.097656 39.175781 35.097656 C 39.175781 35.097656 39.175781 35.097656 39.179688 35.097656 Z M 39.179688 35.097656 " fill-opacity="1" fill-rule="nonzero"/></g></svg>